<?xml version="1.0" encoding="UTF-8" standalone="no"?>
<!-- Created with Inkscape (http://www.inkscape.org/) -->

<svg
   width="28.7609mm"
   height="28.713758mm"
   viewBox="0 0 28.7609 28.713758"
   version="1.1"
   id="svg1"
   sodipodi:docname="banner_beta.svg"
   inkscape:version="1.4.2 (f4327f4, 2025-05-13)"
   xml:space="preserve"
   xmlns:inkscape="http://www.inkscape.org/namespaces/inkscape"
   xmlns:sodipodi="http://sodipodi.sourceforge.net/DTD/sodipodi-0.dtd"
   xmlns="http://www.w3.org/2000/svg"
   xmlns:svg="http://www.w3.org/2000/svg"><sodipodi:namedview
     id="namedview1"
     pagecolor="#ffffff"
     bordercolor="#000000"
     borderopacity="0.25"
     inkscape:showpageshadow="2"
     inkscape:pageopacity="0.0"
     inkscape:pagecheckerboard="0"
     inkscape:deskcolor="#d1d1d1"
     inkscape:document-units="mm"
     inkscape:zoom="2.0334082"
     inkscape:cx="24.835152"
     inkscape:cy="-12.048737"
     inkscape:window-width="1920"
     inkscape:window-height="1009"
     inkscape:window-x="-8"
     inkscape:window-y="-8"
     inkscape:window-maximized="1"
     inkscape:current-layer="layer1" /><defs
     id="defs1" /><g
     inkscape:label="Layer 1"
     inkscape:groupmode="layer"
     id="layer1"
     transform="translate(215.29712,-48.563991)"><path
       style="fill:#660080;stroke-width:0.135585"
       d="M -215.29712,77.277749 V 63.557384 l 14.99339,-14.993393 h 13.76751 z"
       id="path20" /><path
       style="font-weight:bold;font-size:7.2312px;font-family:Sans;-inkscape-font-specification:'Sans, Bold';font-variant-caps:small-caps;text-align:center;text-anchor:middle;fill:#ffffff;stroke-width:0.135585"
       d="m -206.58639,62.645486 q 0.26964,0.269641 0.372,0.591714 0.10487,0.319577 0.0549,0.649138 -0.0549,0.384496 -0.24967,0.719057 -0.19224,0.332057 -0.59671,0.736522 l -1.62285,1.622846 -3.71757,-3.717578 1.44308,-1.443085 q 0.44941,-0.449409 0.68662,-0.626652 0.2397,-0.17974 0.54677,-0.282122 0.31957,-0.104864 0.60421,-0.02497 0.28462,0.0749 0.51681,0.30709 0.26964,0.269641 0.33456,0.619178 0.0624,0.347041 -0.0824,0.721546 l 0.0199,0.01994 q 0.43692,-0.292113 0.87634,-0.277136 0.44192,0.01249 0.81393,0.384496 z m -2.75635,-0.299609 q -0.0924,-0.09238 -0.2322,-0.137306 -0.13728,-0.04748 -0.2996,0.02496 -0.14482,0.06491 -0.30459,0.219734 -0.15974,0.149843 -0.44187,0.431971 l -0.0899,0.08988 0.78646,0.786458 0.1498,-0.149808 q 0.2272,-0.227193 0.37949,-0.39448 0.15229,-0.167281 0.20225,-0.302091 0.0724,-0.187241 0.0225,-0.31708 -0.0524,-0.132328 -0.17227,-0.252169 z m 1.74768,1.278308 q -0.17726,-0.177265 -0.34207,-0.202204 -0.16475,-0.02998 -0.377,0.08738 -0.1448,0.07989 -0.34452,0.274654 -0.20006,0.194412 -0.41478,0.409125 l -0.20973,0.209728 0.92627,0.926268 0.0699,-0.06993 q 0.40446,-0.404465 0.5764,-0.582062 0.17194,-0.177597 0.25716,-0.386986 0.0874,-0.212238 0.04,-0.369512 -0.0474,-0.162274 -0.18227,-0.297098 z m 5.14818,-2.841233 -2.35188,2.351886 -2.80379,-2.803791 2.35188,-2.351886 0.66163,0.661625 -1.45557,1.455573 0.38699,0.386992 1.32325,-1.323251 0.57923,0.579226 -1.32325,1.323252 0.51681,0.516817 1.45558,-1.455572 z m 1.15598,-5.410335 -0.9837,0.983698 2.12718,2.127182 -0.91628,0.916283 -2.12719,-2.127182 -0.98619,0.986195 -0.67661,-0.676609 2.88618,-2.886177 z m 3.69511,-0.384497 -1.00617,1.006171 0.30459,0.639153 -0.93626,0.936259 -1.67278,-3.934794 0.96372,-0.963723 3.93729,1.670291 -0.94375,0.943748 z m -1.38318,0.254665 0.64165,-0.64165 -1.30327,-0.65913 z"
       id="text21"
       aria-label="Beta" /></g></svg>
