<?xml version="1.0" encoding="UTF-8" standalone="no"?>
<!-- Created with Inkscape (http://www.inkscape.org/) -->

<svg
   width="80mm"
   height="100mm"
   viewBox="0 0 80 100"
   version="1.1"
   id="svg1"
   sodipodi:docname="favicon.svg"
   inkscape:version="1.4.2 (f4327f4, 2025-05-13)"
   xml:space="preserve"
   xmlns:inkscape="http://www.inkscape.org/namespaces/inkscape"
   xmlns:sodipodi="http://sodipodi.sourceforge.net/DTD/sodipodi-0.dtd"
   xmlns="http://www.w3.org/2000/svg"
   xmlns:svg="http://www.w3.org/2000/svg"><sodipodi:namedview
     id="namedview1"
     pagecolor="#ffffff"
     bordercolor="#000000"
     borderopacity="0.25"
     inkscape:showpageshadow="2"
     inkscape:pageopacity="0.0"
     inkscape:pagecheckerboard="0"
     inkscape:deskcolor="#d1d1d1"
     inkscape:document-units="mm"
     inkscape:zoom="1.28"
     inkscape:cx="223.4375"
     inkscape:cy="167.57813"
     inkscape:window-width="1920"
     inkscape:window-height="1009"
     inkscape:window-x="-8"
     inkscape:window-y="-8"
     inkscape:window-maximized="1"
     inkscape:current-layer="layer1"
     showgrid="false" /><defs
     id="defs1" /><g
     inkscape:label="Layer 1"
     inkscape:groupmode="layer"
     id="layer1"
     transform="translate(-51.064584,-78.316667)"><path
       style="fill:#ffd388;fill-opacity:1;stroke-width:0.242416"
       d="M 59.249406,167.96456 57.55787,122.1507 c -1.617932,-7.18081 -9.646255,-12.32906 5.900923,-24.952481 l 1.854573,2.866171 c -5.856551,5.98647 -7.00296,12.33527 -1.180181,19.22015 l 18.039966,16.18539 23.266499,-9.77867 c 5.46061,-4.99602 13.98555,-8.10631 14.16221,-16.35399 l 3.03477,0.16859 c 0.76602,4.39536 0.39603,8.41204 -2.86616,11.46465 l -1.30118,45.79362 c -21.428173,13.99526 -40.752851,12.20897 -59.219884,1.20043 z"
       id="path5"
       sodipodi:nodetypes="cccccccccccc" /><path
       style="fill:#ff7095;fill-opacity:1;stroke-width:0.242416"
       d="m 82.510346,135.46993 8.429888,-3.20336 0.674392,-17.36557 c -0.911647,-5.41395 -3.762167,-5.0113 -6.406713,-5.22653 -5.06119,-1.95633 -5.452086,-6.78668 -4.720742,-12.307649 -12.670685,-3.512803 -22.320859,-2.978362 -20.400336,11.970449 0.323599,3.75955 1.314791,7.25206 3.877748,10.11587 z"
       id="path6"
       sodipodi:nodetypes="cccccccc" /><path
       id="path7"
       style="fill:#47c75d;fill-opacity:1;stroke-width:0.242416"
       d="m 105.56823,93.016545 c -2.08783,14.350915 -11.242587,17.625345 -13.447754,23.233205 -2.179944,7.89185 -1.984824,8.15371 0.168465,15.5112 12.478599,-5.07789 22.151499,-11.33402 29.167729,-22.25497 -2.37303,-6.63943 -9.07155,-13.602014 -15.88844,-16.489435 z"
       sodipodi:nodetypes="ccccc" /><path
       style="fill:#ffc800;fill-opacity:1;stroke-width:0.242416"
       d="m 77.996628,96.585354 c -2.11401,-5.802539 -3.331576,-10.799836 7.042683,-15.741122 6.108153,-0.638375 10.638001,0.696125 13.15063,4.55214 10.466429,2.186601 8.474929,9.195627 5.226529,16.691188 1.78839,3.14716 -3.29922,6.29431 -4.643894,9.44148 -9.124642,-0.17426 -4.981583,1.67234 -6.146363,3.70915 -1.078279,-3.28886 -3.648885,-5.41703 -8.767083,-5.56372 -2.485765,-2.89857 -8.576543,-6.29069 -5.862502,-13.089116 z"
       id="path10"
       sodipodi:nodetypes="cccccccc" /><path
       id="path2"
       style="fill:#68440a;fill-opacity:1;stroke-width:0.380007"
       d="m 75.099903,93.33882 c -3.637387,-0.376993 -12.874702,-1.913875 -19.491927,8.21209 -4.324391,6.48505 -4.232502,14.08462 -0.746725,19.99206 0.25277,13.53009 0.102337,37.20098 0.181898,40.60166 0.330785,14.13895 23.31023,16.32797 33.850646,16.11064 11.689405,0.0343 31.978755,-4.15352 32.765965,-14.70763 0.78721,-10.55411 0.43157,-27.83484 0.43613,-41.72717 2.66858,-4.31663 3.59502,-9.78708 1.98696,-14.6544 C 122.11258,100.57729 116.5842,96.023393 107.90192,91.994385 106.58775,85.197179 96.300441,79.469093 89.603269,78.823369 78.909138,76.484591 74.286666,89.531821 75.099903,93.33882 Z m 11.46794,-11.083375 c 11.850658,0.464035 17.563877,4.968615 16.095137,18.318265 -1.46874,13.34964 -11.584272,9.69289 -17.889859,6.77064 -6.305587,-2.92225 -10.055936,-25.552941 1.794722,-25.088905 z m 20.217367,14.346411 c 32.07908,11.830604 -6.820815,30.399844 -12.955278,32.255394 -0.131935,-1.29693 -3.203766,-10.81164 3.472657,-15.01355 9.689281,-0.0154 7.078561,-10.11526 9.482621,-17.241844 z m -30.988558,1.410468 c 0.751974,3.318126 3.955422,15.067846 12.518371,14.509486 0.774494,0.33136 5.317674,17.17999 -6.196004,20.55224 -7.82281,-6.02004 -24.987537,-17.09939 -21.559194,-28.41533 3.428344,-11.315947 11.638819,-7.486318 15.236827,-6.646396 z m -17.614156,8.368266 h 5.17e-4 l -0.02274,0.0744 c -1.022071,3.75249 -0.276735,7.89717 1.910478,11.10372 3.601527,5.33005 8.632417,9.44918 13.398148,13.68598 5.430123,5.41464 21.638797,18.79345 22.231201,14.48387 -2.487614,-2.90968 -7.503322,-6.23003 -9.600211,-9.20956 11.938977,-3.58536 22.521151,-9.24778 31.285931,-16.74199 -0.25508,14.03606 0.35063,38.74667 -0.11848,43.20758 -0.46915,4.46092 -14.36311,12.77576 -31.061884,11.63014 -16.698777,-1.14561 -26.543649,-6.03259 -26.612823,-12.56446 -0.06918,-6.53188 -0.04265,-32.23245 -0.0044,-35.80455 -0.179433,-6.04964 -1.449373,-7.30941 -1.965772,-9.49347 -1.316752,-3.50677 -0.8559,-7.27533 0.560173,-10.37146 z"
       sodipodi:nodetypes="ccczczccczczzzzccccccczcccccccsczzzcccc" /></g></svg>
