<?xml version="1.0" encoding="UTF-8" standalone="no"?>
<!-- Created with Inkscape (http://www.inkscape.org/) -->

<svg
   width="80mm"
   height="100mm"
   viewBox="0 0 80 100"
   version="1.1"
   id="svg1"
   sodipodi:docname="favicon.svg"
   inkscape:version="1.4.2 (f4327f4, 2025-05-13)"
   xmlns:inkscape="http://www.inkscape.org/namespaces/inkscape"
   xmlns:sodipodi="http://sodipodi.sourceforge.net/DTD/sodipodi-0.dtd"
   xmlns="http://www.w3.org/2000/svg"
   xmlns:svg="http://www.w3.org/2000/svg">
  <sodipodi:namedview
     id="namedview1"
     pagecolor="#ffffff"
     bordercolor="#000000"
     borderopacity="0.25"
     inkscape:showpageshadow="2"
     inkscape:pageopacity="0.0"
     inkscape:pagecheckerboard="0"
     inkscape:deskcolor="#d1d1d1"
     inkscape:document-units="mm"
     inkscape:zoom="3.6203867"
     inkscape:cx="150.3983"
     inkscape:cy="119.73859"
     inkscape:window-width="1920"
     inkscape:window-height="1009"
     inkscape:window-x="-8"
     inkscape:window-y="-8"
     inkscape:window-maximized="1"
     inkscape:current-layer="layer1" />
  <defs
     id="defs1" />
  <g
     inkscape:label="Layer 1"
     inkscape:groupmode="layer"
     id="layer1"
     transform="translate(-51.064584,-78.316667)">
    <path
       style="fill:#ffd388;fill-opacity:1;stroke-width:0.242416"
       d="M 59.249406,167.96456 57.55787,122.1507 c -1.617932,-7.18081 -9.646255,-12.32906 5.900923,-24.952481 l 1.854573,2.866171 c -5.856551,5.98647 -7.00296,12.33527 -1.180181,19.22015 l 18.039966,16.18539 23.266499,-9.77867 c 5.46061,-4.99602 13.98555,-8.10631 14.16221,-16.35399 l 3.03477,0.16859 c 0.76602,4.39536 0.39603,8.41204 -2.86616,11.46465 l -1.30118,45.79362 c -22.962885,10.12194 -40.752851,12.20897 -59.219884,1.20043 z"
       id="path5"
       sodipodi:nodetypes="cccccccccccc" />
    <path
       style="fill:#ff7095;fill-opacity:1;stroke-width:0.242416"
       d="m 82.510346,135.46993 8.429888,-3.20336 0.674392,-17.36557 c -0.911647,-5.41395 -3.762167,-5.0113 -6.406713,-5.22653 -5.06119,-1.95633 -5.452086,-6.78668 -4.720742,-12.307649 -11.88131,-2.573071 -19.301864,0.61568 -20.400336,11.970449 0.323599,3.75955 1.314791,7.25206 3.877748,10.11587 z"
       id="path6"
       sodipodi:nodetypes="cccccccc" />
    <path
       style="fill:#47c75d;fill-opacity:1;stroke-width:0.242416"
       d="m 92.289018,131.76077 -2.023176,-6.91251 1.854582,-8.59848 c 0.831615,-2.74451 3.388304,-4.05146 6.912511,-4.55215 l 8.935675,0.16861 c 3.6032,2.28626 4.19578,5.43271 4.72074,8.59849 -6.50014,6.4651 -13.464284,8.75416 -20.400332,11.29604 z"
       id="path7"
       sodipodi:nodetypes="ccccccc" />
    <path
       style="fill:#47c75d;fill-opacity:1;stroke-width:0.242416"
       d="m 70.371304,96.018038 8.767084,-0.168594 -1.180181,-6.743917 c -4.057144,0.393955 -7.110167,2.043057 -7.586903,6.912511 z"
       id="path8"
       sodipodi:nodetypes="cccc" />
    <path
       style="fill:#72739c;fill-opacity:1;stroke-width:0.242416"
       d="m 103.41647,102.25616 2.152,-9.239569 c 8.60739,2.631636 13.51494,9.849839 15.88797,16.489269 l -8.76709,10.45307 c -0.93998,-4.76001 -6.07609,-6.62919 -9.71203,-7.79459 -5.476604,-1.05923 1.12859,-7.1751 0.43915,-9.90818 z"
       id="path9"
       sodipodi:nodetypes="cccccc" />
    <path
       style="fill:#ffc800;fill-opacity:1;stroke-width:0.242416"
       d="m 77.996628,96.585354 c -2.11401,-5.802539 -3.331576,-10.799836 7.042683,-15.741122 6.108153,-0.638375 10.638001,0.696125 13.15063,4.55214 10.466429,2.186601 8.474929,9.195627 5.226529,16.691188 1.78839,3.14716 -3.29922,6.29431 -4.643894,9.44148 -9.124642,-0.17426 -4.981583,1.67234 -6.146363,3.70915 -1.078279,-3.28886 -3.648885,-5.41703 -8.767083,-5.56372 -2.485765,-2.89857 -8.576543,-6.29069 -5.862502,-13.089116 z"
       id="path10"
       sodipodi:nodetypes="cccccccc" />
    <path
       id="path2"
       style="fill:#68440a;fill-opacity:1;stroke-width:0.380007"
       d="m 87.702658,78.38488 c -3.785469,0.139482 -7.795821,1.655108 -9.935311,4.937166 -0.718729,1.071825 -1.187988,2.287123 -1.51722,3.529501 -2.069986,0.225771 -4.030128,1.211652 -5.385201,2.802929 -0.702709,0.684449 -1.117325,1.64015 -1.687752,2.378666 -5.313333,1.720873 -10.458876,4.75822 -13.569198,9.517768 -2.426473,3.63885 -3.706847,8.08962 -3.212724,12.46487 0.243491,2.65285 1.114477,5.23673 2.465999,7.52719 0.182279,3.64 0.08486,7.29116 0.128158,10.93577 0.02376,9.88812 0.01316,19.77992 0.05374,29.66589 0.547381,3.1709 1.778852,6.32874 4.133081,8.59895 3.280636,3.20094 7.779442,4.70134 12.13931,5.75934 5.757344,1.30608 11.676772,1.87403 17.578255,1.75235 4.007604,-0.0165 8.032318,-0.0631 11.992035,-0.74931 5.11611,-0.82405 10.32398,-2.09173 14.71228,-4.95939 3.1175,-2.03401 5.40612,-5.31785 6.06165,-8.99893 0.59742,-2.97603 0.31153,-6.03026 0.41083,-9.04389 0.0423,-10.89435 0.0191,-21.78888 0.0253,-32.68328 2.66858,-4.31663 3.59502,-9.78708 1.98696,-14.6544 C 122.11258,100.57729 116.5842,96.023393 107.90192,91.994385 107.4826,87.532277 103.74093,83.563459 99.239397,83.11379 98.546288,83.0602 96.496259,78.134408 87.70315,78.38488 Z m 1.460376,4.299996 c 5.762341,0.29127 6.617357,4.545325 7.323067,4.417818 1.988523,0.155191 4.001349,0.63385 5.350059,2.20555 1.43301,1.421562 -0.58507,15.320586 -0.84878,16.467076 -0.77536,1.42606 -3.240583,2.91771 -6.442763,4.46705 -0.729192,0.28519 -1.386399,0.73466 -1.958536,1.26555 -0.944261,-2.16301 -3.153334,-3.73741 -5.539197,-3.75016 -1.462129,-0.0572 -3.148583,-0.3159 -3.998206,-1.66398 -2.407174,-1.31709 -5.314042,-13.905801 -2.088244,-19.305279 1.596011,-3.886877 5.922805,-4.218862 8.2026,-4.103625 z m 17.622106,13.917142 c 4.57178,2.357253 9.5709,5.043052 10.88879,8.858592 3.06241,3.11327 1.00152,10.3337 -4.01368,9.95353 -0.33831,-2.25595 -6.46762,-3.4779 -9.38434,-4.62843 -0.0679,-4.90772 0.87531,-9.54961 2.50923,-14.183692 z m -31.376822,1.853988 c 0.957934,0.03288 2.402772,5.211254 3.259232,8.314224 1.766919,4.19674 5.639016,5.14573 9.647474,5.75158 0.774494,0.33136 5.317673,17.17999 -6.196005,20.55224 -5.48198,-3.38106 -21.663707,-17.54088 -19.98741,-22.82445 -0.122674,-2.3308 0.920084,-4.58386 2.327506,-6.38617 2.53747,-3.01274 6.798152,-5.549891 10.949203,-5.407424 z m -17.225305,7.924584 -0.02274,0.0744 c -1.022071,3.75249 -0.276735,7.89717 1.910478,11.10372 3.601527,5.33005 8.632417,9.44918 13.398148,13.68598 5.430123,5.41464 21.638797,18.79345 22.231201,14.48387 -2.791421,-2.24637 -6.252454,-6.28316 -8.9979,-8.64701 -0.545075,-0.40352 -1.046103,-0.79862 -0.04496,-0.89401 8.64221,-2.88345 17.12709,-6.52948 24.62279,-11.76569 3.40284,-2.4147 6.15737,-4.90138 6.03274,-3.54862 0.002,5.39713 -0.0961,29.40389 -0.0961,29.40389 0.13442,4.15896 0.44651,10.69223 -0.60307,14.59859 l -0.004,0.009 c 0.0173,1.55934 -6.28679,5.62932 -8.68319,6.10764 -4.38268,1.36933 -8.934898,2.00068 -13.478772,2.33939 -3.347857,0.10261 -6.820515,0.22175 -10.215397,0.11369 -5.564509,-0.38544 -11.174963,-0.96959 -16.461527,-2.8975 -2.824289,-1.04497 -5.772647,-2.5611 -7.195943,-5.3635 -0.674177,-1.00079 -1.339312,-4.47927 -1.055233,-5.91126 0.02289,-5.72981 0.03043,-29.45535 0.06873,-33.02745 -0.179433,-6.04964 -1.449373,-7.30941 -1.965772,-9.49347 -1.316752,-3.50677 -0.8559,-7.27533 0.560173,-10.37146 z m 41.484806,7.3334 c 3.242771,0.0561 8.391011,0.63215 8.898161,1.39113 2.68813,3.97948 0.84777,5.38321 -2.28461,7.51789 -4.54182,2.14993 -11.663946,5.99604 -12.451438,6.23424 -0.131935,-1.29693 -3.203766,-10.81164 3.472657,-15.01355 0.414974,-0.10925 1.284307,-0.14843 2.36523,-0.12971 z"
       sodipodi:nodetypes="cccccccccccccccccccccccsccccccccscccccscccccscccccccccccccccccccccccccccc" />
  </g>
</svg>
